<?xml version="1.0" encoding="UTF-8" standalone="no"?><!DOCTYPE svg PUBLIC "-//W3C//DTD SVG 1.1//EN" "http://www.w3.org/Graphics/SVG/1.1/DTD/svg11.dtd"><svg width="100%" height="100%" viewBox="0 0 102 125" version="1.1" xmlns="http://www.w3.org/2000/svg" xmlns:xlink="http://www.w3.org/1999/xlink" xml:space="preserve" xmlns:serif="http://www.serif.com/" style="fill-rule:evenodd;clip-rule:evenodd;stroke-linejoin:round;stroke-miterlimit:2;"><path d="M72.038,12.549c-0,6.931 -5.619,12.55 -12.55,12.55c-6.931,-0 -12.549,-5.619 -12.549,-12.55c-0,-6.931 5.618,-12.549 12.549,-12.549c6.931,0 12.55,5.618 12.55,12.549Z" style="fill-rule:nonzero;"/><path d="M31.195,66.491c-0,0 -5.539,-11.751 -5.956,-23.417c-0.416,-11.665 4.097,-20.468 11.388,-25.051c7.291,-4.583 18.595,-6.13 30.677,2.411c12.082,8.541 9.531,31.828 3.699,44.744c-5.833,12.916 -32.933,11.729 -39.808,1.313Z" style="fill-rule:nonzero;"/><path d="M90.642,124.246c-0.404,-9.61 -1.291,-21.94 -3.221,-25.603c-3.301,-6.263 -22.342,-6.859 -25.389,-11.929c-3.046,-5.07 -2.539,-14.314 -2.539,-14.314l-8.631,0.298l-8.632,-0.298c-0,0 0.508,9.244 -2.538,14.314c-3.047,5.07 -22.088,5.666 -25.388,11.929c-1.93,3.663 -2.818,15.993 -3.223,25.603l79.561,0Z" style="fill:#f3ae99;fill-rule:nonzero;"/><path d="M63.327,88.059c-0.56,-0.413 -1.002,-0.858 -1.295,-1.345c-3.046,-5.07 -2.539,-14.314 -2.539,-14.314l-8.631,0.298l-8.632,-0.298c-0,0 0.309,5.752 -1.055,10.671c4.652,3.126 13.104,7.375 22.152,4.988Z" style="fill:#e49481;fill-rule:nonzero;"/><path d="M29.518,50.742c0,0 -3.715,-3.135 -6.654,0.435c-2.451,2.975 0.878,9.017 4.204,10.942c3.325,1.926 4.551,-0.175 4.551,-0.175l-2.101,-11.202Z" style="fill:#f3ae99;fill-rule:nonzero;"/><path d="M29.693,56.113c-0,0 -2.174,-4.13 -4.892,-4.239c-2.718,-0.109 2.283,0.869 2.066,2.717c-0.218,1.849 -2.392,3.479 -1.196,3.371c1.196,-0.109 2.283,-2.392 2.826,-1.196c0.544,1.196 1.305,2.065 1.305,1.413c0,-0.653 -0.109,-2.066 -0.109,-2.066Z" style="fill:#e49481;fill-rule:nonzero;"/><path d="M72.206,50.742c-0,0 3.715,-3.135 6.654,0.435c2.45,2.975 -0.878,9.017 -4.204,10.942c-3.325,1.926 -4.551,-0.175 -4.551,-0.175l2.101,-11.202Z" style="fill:#eeab9a;fill-rule:nonzero;"/><path d="M72.031,56.113c0,0 2.174,-4.13 4.892,-4.239c2.717,-0.109 -2.283,0.869 -2.066,2.717c0.218,1.849 2.392,3.479 1.196,3.371c-1.196,-0.109 -2.283,-2.392 -2.827,-1.196c-0.543,1.196 -1.303,2.065 -1.303,1.413c0,-0.653 0.108,-2.066 0.108,-2.066Z" style="fill:#e49481;fill-rule:nonzero;"/><path d="M50.862,19.78c-14.596,0.541 -23.966,9.911 -23.786,17.299c0.189,7.748 1.081,29.192 8.289,36.94c2.009,2.158 4.101,3.814 6.074,5.078c5.75,3.686 13.096,3.686 18.846,0c1.973,-1.264 4.065,-2.92 6.074,-5.078c7.207,-7.748 8.1,-29.192 8.289,-36.94c0.18,-7.388 -9.19,-16.758 -23.786,-17.299Z" style="fill:#f6b8a1;fill-rule:nonzero;"/><path d="M50.862,19.78c-5.553,0.206 -10.343,1.694 -14.146,3.86c1.195,3.29 2.501,5.528 2.501,5.528c-0,-0 4.743,12.768 14.044,16.233c9.303,3.466 12.404,9.302 12.404,15.139c0,5.837 -2.919,19.335 -17.51,18.056c-4.36,-0.381 -7.757,-1.255 -10.404,-2.286c1.243,1.083 2.488,2.019 3.688,2.787c5.75,3.686 13.096,3.686 18.846,0c1.973,-1.264 4.065,-2.92 6.074,-5.078c7.207,-7.748 8.1,-29.192 8.289,-36.94c0.18,-7.388 -9.19,-16.758 -23.786,-17.299Z" style="fill:#eeab9a;fill-rule:nonzero;"/><path d="M27.994,50.936c0,0 9.062,-8.205 10.531,-20.206c-0,0 4.042,11.878 22.287,15.552c0,0 -6.49,-3.919 -8.694,-8.695c-0,0 7.838,8.695 16.532,10.777c-0,0 -3.797,-3.551 -4.653,-9.797c0,0 2.227,7.667 9.942,11.585c-0,0 2.059,-8.278 1.446,-13.911c-0.612,-5.633 -7.347,-16.042 -19.715,-18.002c-12.369,-1.959 -22.411,3.306 -26.452,8.572c-4.041,5.266 -3.673,19.104 -1.224,24.125Z" style="fill-rule:nonzero;"/><path d="M42.424,55.947c-0,1.193 -0.783,2.16 -1.748,2.16c-0.966,-0 -1.749,-0.967 -1.749,-2.16c0,-1.193 0.783,-2.16 1.749,-2.16c0.965,0 1.748,0.967 1.748,2.16Z" style="fill-rule:nonzero;"/><path d="M62.096,55.947c0,1.193 -0.782,2.16 -1.747,2.16c-0.966,-0 -1.749,-0.967 -1.749,-2.16c0,-1.193 0.783,-2.16 1.749,-2.16c0.965,0 1.747,0.967 1.747,2.16Z" style="fill-rule:nonzero;"/><path d="M51.632,55.078c0,0 -1.036,1.423 0.517,4.398c1.552,2.976 2.975,4.916 2.069,5.951c-0.905,1.035 -3.363,1.94 -3.233,1.552c0.129,-0.388 2.125,-1.525 1.091,-4.242c-1.035,-2.716 -2.774,-5.077 -0.444,-7.659Z" style="fill:#e49481;fill-rule:nonzero;"/><path d="M33.971,51.982c-0,-0 3.33,-5.885 8.24,-3.837c1.738,0.725 1.528,2.736 -2.328,2.021c-2.4,-0.446 -5.912,1.816 -5.912,1.816Z" style="fill-rule:nonzero;"/><path d="M66.345,51.646c0,-0 -3.504,-5.466 -8.103,-3.242c-1.628,0.787 -1.32,2.704 2.34,1.814c2.277,-0.554 5.763,1.428 5.763,1.428Z" style="fill-rule:nonzero;"/><path d="M50.51,71.936c-3.159,0 -5.194,-0.775 -5.32,-0.824c-0.167,-0.066 -0.249,-0.253 -0.183,-0.419c0.064,-0.166 0.254,-0.248 0.418,-0.183c0.045,0.017 4.562,1.728 10.548,-0.009c0.168,-0.053 0.35,0.048 0.401,0.22c0.049,0.171 -0.049,0.35 -0.221,0.401c-2.104,0.61 -4.021,0.814 -5.643,0.814Z" style="fill:#d07b6a;fill-rule:nonzero;"/><path d="M48.414,73.463c0,0 1.998,0.923 4.542,0c-0,0 -2.182,2.551 -4.542,0Z" style="fill:#d07b6a;fill-rule:nonzero;"/><path d="M101.724,124.246c-1.142,-9.569 -3.716,-21.828 -9.514,-26.526c-7.945,-6.435 -22.157,-9.825 -27.82,-10.971c-0.859,6.43 -6.582,11.406 -13.528,11.406c-6.947,0 -12.668,-4.976 -13.528,-11.406c-5.663,1.146 -19.875,4.536 -27.819,10.971c-5.799,4.698 -8.373,16.957 -9.515,26.526l101.724,0Z" style="fill:#f16d79;fill-rule:nonzero;"/><path d="M23.91,124.246c-1.491,-4.765 -0.527,-10.578 -1.188,-12.725c-0.837,-2.72 -2.655,7.329 -3.791,12.725l4.979,0Z" style="fill:#e65e72;fill-rule:nonzero;"/><path d="M92.21,97.72c-7.945,-6.435 -22.157,-9.825 -27.82,-10.971c-0.239,1.789 -0.865,3.458 -1.779,4.946c4.639,2.279 13.235,5.019 15.183,8.331c2.672,4.544 -0.535,6.683 -4.01,13.366c-2.257,4.34 -1.022,7.665 -0.022,10.854l27.962,0c-1.142,-9.569 -3.716,-21.828 -9.514,-26.526Z" style="fill:#e65e72;fill-rule:nonzero;"/><path d="M33.324,104.167c7.895,2.871 13.961,-3.631 15.922,-6.115c-6.199,-0.702 -11.12,-5.38 -11.912,-11.303c-0.89,0.179 -2.01,0.422 -3.265,0.716c-2.309,3.383 -8.909,13.733 -0.745,16.702Z" style="fill:#fff;fill-rule:nonzero;"/><path d="M68.4,104.167c-7.894,2.871 -13.962,-3.631 -15.923,-6.115c6.2,-0.702 11.121,-5.38 11.913,-11.303c0.89,0.179 2.01,0.422 3.265,0.716c2.309,3.383 8.908,13.733 0.745,16.702Z" style="fill:#fff;fill-rule:nonzero;"/></svg>