<?xml version="1.0" encoding="UTF-8" standalone="no"?><!DOCTYPE svg PUBLIC "-//W3C//DTD SVG 1.1//EN" "http://www.w3.org/Graphics/SVG/1.1/DTD/svg11.dtd"><svg width="100%" height="100%" viewBox="0 0 102 109" version="1.1" xmlns="http://www.w3.org/2000/svg" xmlns:xlink="http://www.w3.org/1999/xlink" xml:space="preserve" xmlns:serif="http://www.serif.com/" style="fill-rule:evenodd;clip-rule:evenodd;stroke-linejoin:round;stroke-miterlimit:2;"><g><path d="M90.525,108.648c-0.405,-9.609 -1.292,-21.94 -3.223,-25.603c-3.3,-6.263 -22.341,-6.858 -25.387,-11.928c-3.047,-5.07 -2.539,-14.315 -2.539,-14.315l-8.632,0.298l-8.632,-0.298c-0,-0 0.508,9.245 -2.539,14.315c-3.046,5.07 -22.087,5.665 -25.387,11.928c-1.93,3.663 -2.818,15.994 -3.223,25.603l79.562,-0Z" style="fill:#f0ac93;fill-rule:nonzero;"/><path d="M50.744,57.1l-8.632,-0.298c-0,-0 0.343,6.363 -1.279,11.426c4.362,3.351 12.11,7.006 22.551,4.354c-0.641,-0.448 -1.148,-0.931 -1.469,-1.465c-3.047,-5.07 -2.539,-14.315 -2.539,-14.315l-8.632,0.298Z" style="fill:#e49481;fill-rule:nonzero;"/><path d="M28.734,34.428c-0,-0 -3.832,-3.233 -6.863,0.448c-2.527,3.068 0.906,9.298 4.335,11.284c3.43,1.985 4.693,-0.181 4.693,-0.181l-2.165,-11.551Z" style="fill:#f0ac93;fill-rule:nonzero;"/><path d="M28.914,39.967c0,-0 -2.242,-4.26 -5.045,-4.372c-2.803,-0.112 2.354,0.897 2.13,2.802c-0.224,1.906 -2.467,3.587 -1.233,3.475c1.233,-0.112 2.354,-2.465 2.914,-1.232c0.561,1.232 1.346,2.129 1.346,1.456c0,-0.672 -0.112,-2.129 -0.112,-2.129Z" style="fill:#e49481;fill-rule:nonzero;"/><path d="M72.755,34.428c0,-0 3.831,-3.233 6.862,0.448c2.527,3.068 -0.906,9.298 -4.335,11.284c-3.43,1.985 -4.693,-0.181 -4.693,-0.181l2.166,-11.551Z" style="fill:#f0ac93;fill-rule:nonzero;"/><path d="M72.574,39.967c0,-0 2.242,-4.26 5.045,-4.372c2.803,-0.112 -2.355,0.897 -2.13,2.802c0.225,1.906 2.466,3.587 1.233,3.475c-1.233,-0.112 -2.354,-2.465 -2.915,-1.232c-0.56,1.232 -1.345,2.129 -1.345,1.456c0,-0.672 0.112,-2.129 0.112,-2.129Z" style="fill:#e49481;fill-rule:nonzero;"/><path d="M50.744,5.777c-14.596,0.539 -23.966,9.91 -23.786,17.298c0.189,7.749 1.082,29.192 8.289,36.94c2.008,2.159 4.101,3.814 6.074,5.078c5.75,3.685 13.096,3.685 18.846,0c1.973,-1.264 4.065,-2.919 6.074,-5.078c7.207,-7.748 8.1,-29.191 8.289,-36.94c0.18,-7.388 -9.19,-16.759 -23.786,-17.298Z" style="fill:#f0ac93;fill-rule:nonzero;"/><path d="M50.744,5.777c-7.842,0.289 -14.155,3.138 -18.309,6.85c0.244,1.882 0.884,4 2.034,6.406c-0,0 4.907,7.998 16.175,7.998c11.269,-0 15.267,4.725 15.267,12.904c0,8.178 -1.093,21.867 -13.086,25.08c-7.501,2.009 -13.297,-1.268 -16.587,-4.005c1.699,1.673 3.432,3.025 5.083,4.083c5.75,3.685 13.096,3.685 18.846,0c1.973,-1.264 4.065,-2.919 6.074,-5.078c7.207,-7.748 8.1,-29.191 8.289,-36.94c0.18,-7.388 -9.19,-16.759 -23.786,-17.298Z" style="fill:#eda28a;fill-rule:nonzero;"/><path d="M28.142,39.932c-0,-0 -3.824,-11.3 -2.955,-19.121c0.869,-7.823 5.91,-9.909 5.91,-9.909c0,-0 -3.302,-6.78 11.125,-9.909c14.428,-3.129 22.077,2.086 25.553,2.608c3.477,0.521 8.052,-2.539 8.518,-1.216c1.043,2.954 -1.739,6.953 -1.739,6.953c-0,-0 1.565,-1.043 2.782,-0.349c1.208,0.69 -2.434,6.607 -2.434,6.607c0,-0 0.522,1.043 1.043,5.736c0.521,4.692 -2.607,18.6 -2.607,18.6c0,-0 -3.303,-9.909 -3.825,-13.733c-0.521,-3.824 -2.607,-8.344 -2.607,-8.344c0,-0 -8.866,6.953 -18.078,6.78c-9.213,-0.174 -14.254,-5.042 -14.254,-5.042c0,0 1.912,4.693 -1.391,7.301c-3.302,2.608 -3.302,5.042 -3.302,6.258c-0,1.216 -1.739,6.78 -1.739,6.78Z" style="fill-rule:nonzero;"/><path d="M101.724,108.648c-1.142,-9.569 -3.716,-21.828 -9.514,-26.526c-7.945,-6.435 -22.157,-9.824 -27.82,-10.973c-0.859,6.433 -6.582,11.408 -13.528,11.408c-6.947,-0 -12.669,-4.975 -13.528,-11.408c-5.663,1.149 -19.876,4.538 -27.82,10.973c-5.798,4.698 -8.372,16.957 -9.514,26.526l101.724,-0Z" style="fill:#5380d4;fill-rule:nonzero;"/><path d="M21.66,108.648c-1.77,-7.471 -2.963,-19.241 -4.919,-14.023c-1.28,3.414 -2.718,9.274 -3.15,14.023l8.069,-0Z" style="fill:#4573c7;fill-rule:nonzero;"/><path d="M101.724,108.648c-1.142,-9.569 -3.716,-21.828 -9.514,-26.526c-7.945,-6.435 -22.157,-9.824 -27.82,-10.973c-0.144,1.082 -0.437,2.118 -0.839,3.099c4.932,0.058 12.675,1.655 14.819,10.723c2.262,9.573 0.712,17.546 -5.129,23.677l28.483,-0Z" style="fill:#4573c7;fill-rule:nonzero;"/><path d="M34.263,71.821c0.47,7.81 7.71,14.017 16.599,14.017c8.889,0 16.129,-6.207 16.599,-14.017c-1.175,-0.272 -3.821,-0.5 -4.664,-0.672c-0.86,6.433 -4.989,9.814 -11.935,9.814c-6.947,-0 -11.075,-3.381 -11.935,-9.814c-0.844,0.172 -3.489,0.4 -4.664,0.672Z" style="fill:#3563bb;fill-rule:nonzero;"/><path d="M42.703,40.765c0,1.193 -0.783,2.159 -1.748,2.159c-0.966,0 -1.749,-0.966 -1.749,-2.159c-0,-1.192 0.783,-2.16 1.749,-2.16c0.965,0 1.748,0.968 1.748,2.16Z" style="fill-rule:nonzero;"/><path d="M62.376,40.765c0,1.193 -0.784,2.159 -1.749,2.159c-0.964,0 -1.747,-0.966 -1.747,-2.159c0,-1.192 0.783,-2.16 1.747,-2.16c0.965,0 1.749,0.968 1.749,2.16Z" style="fill-rule:nonzero;"/><path d="M51.91,39.897c0,-0 -1.035,1.423 0.517,4.398c1.553,2.974 2.976,4.914 2.071,5.949c-0.906,1.036 -3.364,1.942 -3.235,1.553c0.13,-0.389 2.126,-1.525 1.091,-4.241c-1.034,-2.717 -2.773,-5.078 -0.444,-7.659Z" style="fill:#e49481;fill-rule:nonzero;"/><path d="M34.842,35.991c-0,-0 2.627,-4.812 6.631,-3.211c1.418,0.566 1.273,2.199 -1.861,1.666c-1.951,-0.332 -4.77,1.545 -4.77,1.545Z" style="fill-rule:nonzero;"/><path d="M65.947,36.118c-0,-0 -2.586,-4.832 -6.605,-3.267c-1.42,0.555 -1.29,2.188 1.849,1.682c1.954,-0.315 4.756,1.585 4.756,1.585Z" style="fill-rule:nonzero;"/><path d="M46.307,56.605c-0.223,-0.383 -0.056,-0.867 0.361,-1.013c2.343,-0.823 9.984,-2.871 10.284,-2.032c0.353,0.989 -0.654,5.303 -5.445,5.585c-3.27,0.193 -4.658,-1.613 -5.2,-2.54Z" style="fill:#ca2d52;fill-rule:nonzero;"/><path d="M51.507,59.145c2.149,-0.126 3.532,-1.065 4.376,-2.151c-3.94,-1.868 -6.46,0.369 -7.464,1.595c0.773,0.382 1.773,0.635 3.088,0.556Z" style="fill:#eb5e7c;fill-rule:nonzero;"/><path d="M56.037,53.895c0.082,-0.205 0.134,-0.377 0.171,-0.527c-1.95,0.021 -7.197,1.435 -9.31,2.146c0.147,0.268 0.599,0.51 2.101,0.405c2.508,-0.176 6.685,-1.143 7.038,-2.024Z" style="fill:#fff;fill-rule:nonzero;"/><path d="M38.897,50.247c-4.641,0 -8.404,-3.763 -8.404,-8.404c-0,-4.642 3.763,-6.277 8.404,-6.277c4.642,-0 8.404,1.635 8.404,6.277c-0,4.641 -3.762,8.404 -8.404,8.404Zm2.058,-11.642c-0.966,0 -1.749,0.968 -1.749,2.16c-0,1.193 0.783,2.159 1.749,2.159c0.965,0 1.748,-0.966 1.748,-2.159c0,-1.192 -0.783,-2.16 -1.748,-2.16Z" style="fill:#f6c9b8;fill-rule:nonzero;"/><path d="M40.955,42.924c-0.966,0 -1.749,-0.966 -1.749,-2.159c-0,-1.192 0.783,-2.16 1.749,-2.16c0.965,0 1.748,0.968 1.748,2.16c0,1.193 -0.783,2.159 -1.748,2.159Z" style="fill:#595959;fill-rule:nonzero;"/><path d="M61.726,50.247c-4.642,0 -8.404,-3.763 -8.404,-8.404c0,-4.642 3.762,-6.277 8.404,-6.277c1.373,-0 2.669,0.143 3.814,0.465c0.253,1.195 0.371,2.499 0.371,3.904c0,2.769 -0.125,6.17 -0.757,9.584c-1.047,0.468 -2.208,0.728 -3.428,0.728Zm-1.099,-11.642c-0.964,0 -1.747,0.968 -1.747,2.16c0,1.193 0.783,2.159 1.747,2.159c0.965,0 1.749,-0.966 1.749,-2.159c0,-1.192 -0.784,-2.16 -1.749,-2.16Z" style="fill:#f6c9b8;fill-rule:nonzero;"/><path d="M65.154,49.519c0.632,-3.414 0.757,-6.815 0.757,-9.584c0,-1.405 -0.118,-2.709 -0.371,-3.904c2.725,0.766 4.591,2.544 4.591,5.812c0,3.421 -2.044,6.364 -4.977,7.676Z" style="fill:#f4c2b2;fill-rule:nonzero;"/><path d="M60.627,42.924c-0.964,0 -1.747,-0.966 -1.747,-2.159c0,-1.192 0.783,-2.16 1.747,-2.16c0.965,0 1.749,0.968 1.749,2.16c0,1.193 -0.784,2.159 -1.749,2.159Z" style="fill:#595959;fill-rule:nonzero;"/><path d="M61.726,49.721c-4.343,-0 -7.877,-3.534 -7.877,-7.878c-0,-4.752 4.284,-5.751 7.877,-5.751c3.594,0 7.878,0.999 7.878,5.751c0,4.344 -3.533,7.878 -7.878,7.878Zm-22.829,-0c-4.344,-0 -7.877,-3.534 -7.877,-7.878c0,-4.752 4.282,-5.751 7.877,-5.751c3.593,0 7.878,0.999 7.878,5.751c-0,4.344 -3.534,7.878 -7.878,7.878Zm22.829,-14.681c-5.41,-0 -8.499,2.155 -8.858,6.051l-5.111,-0c-0.359,-3.896 -3.451,-6.051 -8.86,-6.051c-5.76,-0 -8.931,2.415 -8.931,6.803c0,4.925 4.005,8.93 8.931,8.93c4.671,0 8.509,-3.604 8.893,-8.177l5.044,-0c0.384,4.573 4.221,8.177 8.892,8.177c4.925,0 8.932,-4.005 8.932,-8.93c-0,-4.388 -3.172,-6.803 -8.932,-6.803Z" style="fill:#241512;fill-rule:nonzero;"/></g></svg>